<svg width="562" height="786" viewBox="0 0 562 786" fill="none" xmlns="http://www.w3.org/2000/svg">
<g filter="url(#filter0_d_3_675)">
<path opacity="0.1" d="M558 46.9993C558 27.1168 541.883 10.9999 521.999 10.9999C515.443 10.9999 509.296 12.7532 504 15.8168C498.704 12.7534 492.557 10.9999 486.001 10.9999C466.117 10.9999 450 27.1168 450 46.9993C450 60.4318 457.356 72.1437 468.259 78.3301C470.398 96.1693 485.583 109.999 504 109.999C522.417 109.999 537.602 96.1693 539.741 78.3301C550.644 72.1437 558 60.4318 558 46.9993ZM473.203 80.6554C477.181 82.1683 481.492 82.9987 486.001 82.9987C492.557 82.9987 498.704 81.2454 504 78.1818C509.296 81.2452 515.443 82.9987 521.999 82.9987C526.508 82.9987 530.819 82.1681 534.797 80.6554C534.385 82.5686 533.795 84.4407 533.027 86.2584C531.441 90.009 529.167 93.3792 526.274 96.273C523.38 99.1669 520.011 101.439 516.261 103.026C512.378 104.668 508.255 105.5 504 105.5C499.745 105.5 495.622 104.668 491.739 103.026C487.988 101.44 484.62 99.1669 481.726 96.273C478.832 93.3792 476.558 90.0093 474.973 86.2584C474.205 84.4407 473.615 82.5686 473.203 80.6554ZM535.466 75.4841C535.067 75.672 534.665 75.8532 534.26 76.0262C530.38 77.6675 526.254 78.4999 521.999 78.4999C517.744 78.4999 513.621 77.6677 509.742 76.0262C509.224 75.807 508.717 75.5746 508.212 75.3307C516.33 68.9564 521.64 59.1693 521.979 48.1297C523.505 49.1926 524.942 50.3925 526.274 51.7256C529.168 54.6194 531.442 57.9894 533.027 61.7386C534.668 65.6194 535.499 69.7443 535.499 73.9993C535.499 74.4969 535.489 74.9914 535.466 75.4841ZM517.464 45.5145C517.487 46.0073 517.5 46.5017 517.5 46.9993C517.5 51.2543 516.669 55.3792 515.028 59.2584C513.439 63.009 511.169 66.3792 508.275 69.273C506.946 70.6013 505.519 71.7961 504 72.8541C502.48 71.7961 501.053 70.6013 499.725 69.273C496.831 66.3792 494.56 63.0093 492.972 59.2584C491.331 55.3792 490.5 51.2543 490.5 46.9993C490.5 46.5017 490.513 46.0073 490.536 45.5145C490.932 45.3266 491.334 45.1454 491.739 44.9724C495.622 43.3311 499.745 42.4988 504 42.4988C508.255 42.4988 512.378 43.3309 516.261 44.9724C516.666 45.1454 517.068 45.3266 517.464 45.5145ZM504 37.9999C499.495 37.9999 495.18 38.8305 491.205 40.3432C491.617 38.43 492.204 36.5579 492.972 34.7403C494.561 30.9896 496.832 27.6194 499.725 24.7256C501.054 23.3973 502.481 22.2026 504 21.1445C505.52 22.2026 506.947 23.3973 508.275 24.7256C511.169 27.6194 513.44 30.9894 515.028 34.7403C515.796 36.5579 516.386 38.43 516.795 40.3432C512.82 38.8303 508.505 37.9999 504 37.9999ZM486.021 48.1297C486.36 59.1693 491.67 68.9564 499.788 75.3307C499.284 75.5746 498.776 75.807 498.259 76.0262C494.379 77.6675 490.256 78.4999 486.001 78.4999C481.747 78.4999 477.62 77.6677 473.741 76.0262C473.335 75.8532 472.933 75.6718 472.534 75.4841C472.511 74.9914 472.501 74.4969 472.501 73.9993C472.501 69.7443 473.332 65.6194 474.973 61.7403C476.559 57.9896 478.833 54.6194 481.727 51.7256C483.058 50.3925 484.495 49.1926 486.021 48.1297ZM499.788 18.6679C492.461 24.4193 487.425 32.949 486.261 42.6686C475.665 48.6803 468.421 59.9127 468.019 72.8689C466.493 71.806 465.059 70.6062 463.727 69.273C460.83 66.3792 458.559 63.0093 456.974 59.2584C455.333 55.3792 454.499 51.2543 454.499 46.9993C454.499 42.7443 455.333 38.6194 456.974 34.7403C458.559 30.9896 460.83 27.6194 463.727 24.7256C466.621 21.8317 469.99 19.5593 473.74 17.9722C477.62 16.3309 481.746 15.4985 486.001 15.4985C490.256 15.4985 494.379 16.3307 498.258 17.9722C498.776 18.1916 499.284 18.4238 499.788 18.6679ZM551.026 34.7403C552.667 38.6196 553.501 42.7443 553.501 46.9993C553.501 51.2543 552.667 55.3792 551.026 59.2584C549.441 63.009 547.17 66.3792 544.273 69.273C542.941 70.6062 541.507 71.806 539.981 72.8689C539.579 59.9127 532.335 48.6803 521.739 42.6686C520.575 32.949 515.539 24.4191 508.212 18.6679C508.717 18.424 509.224 18.1916 509.742 17.9724C513.621 16.3311 517.744 15.4988 521.999 15.4988C526.254 15.4988 530.38 16.3309 534.26 17.9724C538.01 19.5593 541.379 21.8319 544.273 24.7258C547.17 27.6194 549.441 30.9896 551.026 34.7403Z" fill="white"/>
<g opacity="0.1" clip-path="url(#clip0_3_675)">
<path d="M102.864 103.291L102.534 103.954C101.986 105.057 102.445 106.4 103.558 106.953C104.67 107.507 106.017 107.06 106.565 105.957L106.566 105.954L116.484 86.0004L116.485 85.9974C117.033 84.8949 116.576 83.5521 115.464 82.999C114.351 82.4459 113.003 82.8918 112.455 83.9942L112.159 84.5908L95.2835 67.9917L71.2274 75.9484L79.4098 99.9288L102.864 103.291ZM76.9266 78.7811L94.1113 73.0975L110.07 88.793L108.487 91.9774L94.3838 84.9675C93.271 84.4145 91.9247 84.8611 91.3768 85.9635C90.8288 87.066 91.2857 88.4088 92.3985 88.9619L106.502 95.9718L104.957 99.08L82.7675 95.9021L76.9266 78.7811Z" fill="white"/>
<path d="M48.5273 10.4064L50.7132 6.00854L38.6241 -0.000111759L32.6711 11.977L44.7602 17.9857L46.5231 14.4388C49.5904 16.5759 52.3688 19.0764 54.8254 21.92C58.6229 26.3163 61.5035 31.3362 63.382 36.8461C65.2606 42.3526 66.0458 48.0666 65.7119 53.8297C65.4963 57.555 64.8169 61.2029 63.6821 64.7302L62.1148 63.9512L56.1618 75.9284L57.729 76.7073C55.6025 79.7417 53.1049 82.4858 50.2655 84.9071C45.8733 88.6531 40.8441 91.4774 35.3205 93.3045C29.7939 95.1339 24.0532 95.8688 18.2558 95.496C14.5056 95.2547 10.835 94.5498 7.27936 93.3952L9.0421 89.8486L-3.04699 83.84L-9 95.8171L3.08909 101.826L5.27496 97.4279C23.602 103.645 43.643 98.5573 56.6472 85.0635L45.1393 108.217C42.383 107.871 39.5991 109.252 38.3027 111.86C36.6589 115.167 38.0326 119.194 41.3707 120.853C44.7088 122.512 48.748 121.176 50.3918 117.869C51.6882 115.26 51.1075 112.208 49.1695 110.22L64.2221 79.9348L68.2508 81.9372L71.2273 75.9486L74.2038 69.96L70.1751 67.9577L85.2277 37.6727C87.9825 38.0172 90.7664 36.637 92.0629 34.0286C93.7066 30.7214 92.3329 26.6948 88.9948 25.0357C85.6567 23.3765 81.6175 24.7127 79.9738 28.0199C78.6773 30.6283 79.258 33.6808 81.1975 35.6695L69.6897 58.8227C72.5942 40.309 64.5478 21.2643 48.5273 10.4064ZM44.6991 7.99679L42.7138 11.9912L38.6851 9.98879L40.6705 5.99441L44.6991 7.99679ZM-2.98596 93.8289L-1.00063 89.8345L3.02806 91.8369L1.04273 95.8313L-2.98596 93.8289ZM46.3631 115.866C45.8166 116.966 44.4658 117.414 43.3546 116.862C42.2433 116.309 41.7864 114.963 42.3329 113.863C42.8793 112.764 44.2286 112.315 45.3399 112.867C46.4511 113.419 46.9095 114.767 46.3631 115.866ZM68.1913 71.949L66.206 75.9434L62.1758 73.9403L64.1611 69.9459L68.1913 71.949ZM84.004 30.0231C84.5504 28.9236 85.8997 28.4747 87.011 29.0271C88.1222 29.5794 88.5806 30.9267 88.0342 32.0262C87.4877 33.1257 86.1369 33.5738 85.0256 33.0214C83.9144 32.4691 83.4575 31.1225 84.004 30.0231Z" fill="white"/>
</g>
<g opacity="0.1">
<path d="M13.5002 496.249C12.2576 496.251 11.2491 497.257 11.2524 498.5C11.2524 499.743 12.2578 500.749 13.5002 500.749C14.7426 500.749 15.7513 499.743 15.7513 498.5C15.7513 497.257 14.7428 496.251 13.5002 496.249Z" fill="white"/>
<path d="M105.752 485H81.5735L103.897 475.755C105.044 475.279 105.588 473.962 105.113 472.815L96.5007 452.028C96.1447 451.161 95.3043 450.637 94.4243 450.637C94.1342 450.637 93.8442 450.693 93.5641 450.81L70.6575 460.297L88.3005 442.654C89.1772 441.776 89.1772 440.352 88.3005 439.474L72.3878 423.563C71.9495 423.124 71.3728 422.903 70.7993 422.903C70.2226 422.905 69.6457 423.124 69.2073 423.563L52.0423 440.726L61.2742 418.437C61.7522 417.29 61.205 415.974 60.0579 415.499L39.2707 406.889C38.9905 406.772 38.6971 406.716 38.4105 406.716C37.527 406.716 36.69 407.24 36.3308 408.107L27 430.631V406.249C27 405.007 25.9947 404 24.7523 404H2.25113C1.00849 404 0 405.007 0 406.249V509.751C0 510.993 1.00849 512 2.25113 512H105.752C106.995 512 108 510.993 108 509.749V487.249C108 486.007 106.995 485 105.752 485ZM93.2046 455.828L100.093 472.457L29.083 501.872L62.3419 468.613L93.2046 455.828ZM70.7993 428.337L83.5247 441.064L29.5443 495.046L47.5432 451.591L70.7993 428.337ZM39.6265 411.907L56.2577 418.795L27 489.426V486.928V442.391L39.6265 411.907ZM22.5011 408.501V485H16.898H4.50225V408.501H22.5011ZM4.50225 507.499V489.501H22.5011V507.499H4.50225ZM103.501 507.499H27.2538L70.7103 489.501H103.501V507.499Z" fill="white"/>
</g>
<path opacity="0.1" d="M309.88 245.118C309.88 235.774 302.306 228.2 292.962 228.2C291.709 228.2 290.493 228.337 289.32 228.594L278.107 217.38L308.535 186.95C313.805 181.68 313.805 173.134 308.535 167.863C305.902 165.228 302.448 163.91 298.994 163.91C295.539 163.91 292.085 165.228 289.448 167.863L259.018 198.293L224.361 163.635C222.604 161.878 220.3 161 217.999 161C215.696 161 213.392 161.878 211.635 163.635C208.122 167.148 208.122 172.845 211.635 176.36L246.295 211.017L213.51 243.8V262.887H232.6L265.381 230.105L276.495 241.219C276.199 242.472 276.041 243.777 276.041 245.118C276.041 264.279 304.297 265.797 313.641 265.797C322.985 265.797 309.88 254.462 309.88 245.118ZM298.994 168.409C301.396 168.409 303.654 169.345 305.355 171.044C308.862 174.552 308.862 180.261 305.355 183.77L302.174 186.95L289.448 174.225L292.629 171.044C294.33 169.345 296.588 168.409 298.994 168.409ZM214.816 173.178C213.062 171.425 213.062 168.571 214.816 166.815C215.666 165.967 216.797 165.499 218 165.499C219.199 165.499 220.33 165.967 221.18 166.815L255.837 201.474L249.476 207.837L214.816 173.178ZM218.013 258.388V254.661L221.737 258.388H218.013ZM230.735 258.388H228.102L218.013 248.299V245.664L286.268 177.407L291.054 182.193L229.433 243.813C228.553 244.691 228.553 246.117 229.433 246.995C230.31 247.874 231.737 247.874 232.614 246.995L294.234 185.373L298.993 190.131L230.735 258.388ZM268.562 226.925L274.923 220.562L284.709 230.346C282.046 231.837 279.828 234.024 278.302 236.664L268.562 226.925ZM292.774 258.379C288.862 257.061 285.846 255.344 283.809 253.276C281.611 251.044 280.543 248.376 280.543 245.118C280.543 241.801 281.831 238.683 284.178 236.336C286.525 233.991 289.643 232.699 292.962 232.699C299.811 232.699 305.381 238.271 305.381 245.118C305.381 250.24 308.11 255.235 310.305 259.248C310.632 259.848 311.027 260.57 311.39 261.268C306.544 261.141 299.208 260.548 292.774 258.379Z" fill="white"/>
<g opacity="0.1">
<path d="M170.749 691.999H119L74.0011 683V691.999H67.2511C66.0085 691.999 65 693.008 65 694.251V775.251C65 776.493 66.0085 777.5 67.2511 777.5H170.749C171.992 777.5 173 776.493 173 775.251V694.251C173 693.008 171.992 691.999 170.749 691.999ZM78.5 688.489L114.501 695.689V772.011L78.5 764.811V688.489ZM69.4989 772.999V696.5H74.0011V768.501L96.4989 772.999H69.4989ZM168.501 772.999H119V696.5H168.501V772.999Z" fill="white"/>
<path d="M141.501 701H128.001V714.5H141.501V701ZM136.999 710H132.5V705.499H136.999V710Z" fill="white"/>
<path d="M159.5 701H146V714.5H159.5V701ZM155.001 710H150.499V705.499H155.001V710Z" fill="white"/>
<path d="M141.501 719H128.001V732.5H141.501V719ZM136.999 728.001H132.5V723.5H136.999V728.001Z" fill="white"/>
<path d="M159.5 719H146V732.5H159.5V719ZM155.001 728.001H150.499V723.5H155.001V728.001Z" fill="white"/>
<path d="M141.501 737H128.001V750.5H141.501V737ZM136.999 745.999H132.5V741.501H136.999V745.999Z" fill="white"/>
<path d="M159.5 737H146V750.5H159.5V737ZM155.001 745.999H150.499V741.501H155.001V745.999Z" fill="white"/>
<path d="M141.501 768.5V755H128.001V768.5H141.501ZM132.5 759.499H136.999V764H132.5V759.499Z" fill="white"/>
<path d="M159.5 755H146V768.5H159.5V755ZM155.001 764H150.499V759.499H155.001V764Z" fill="white"/>
</g>
<path opacity="0.1" d="M364.365 528.612C362.604 526.872 360.304 526 358.003 526C355.696 526 353.396 526.872 351.642 528.612L286.68 592.97C285.507 592.715 284.287 592.578 283.041 592.578C273.694 592.578 266.12 600.085 266.12 609.342C266.12 618.6 253.016 629.829 262.363 629.829C271.703 629.829 299.956 628.324 299.956 609.342C299.956 608.01 299.798 606.717 299.508 605.476L364.365 541.22C367.878 537.736 367.878 532.093 364.365 528.612ZM292.191 617.421C290.154 619.471 287.135 621.173 283.226 622.479C276.792 624.627 269.456 625.215 264.611 625.339C264.973 624.647 265.369 623.932 265.698 623.338C267.887 619.364 270.622 614.413 270.622 609.342C270.622 602.557 276.192 597.035 283.041 597.035C286.357 597.035 289.475 598.315 291.822 600.64C294.168 602.965 295.46 606.054 295.46 609.342C295.46 612.568 294.393 615.21 292.191 617.421ZM361.181 538.069L297.695 600.967C296.172 598.351 293.951 596.183 291.288 594.707L354.82 531.763C355.67 530.921 356.797 530.457 358.003 530.457C359.203 530.457 360.33 530.921 361.181 531.763C362.031 532.606 362.499 533.726 362.499 534.914C362.499 536.106 362.031 537.226 361.181 538.069Z" fill="white"/>
<g opacity="0.1">
<path d="M483 673C468.089 673 456 684.977 456 699.75C456 714.524 468.089 726.5 483 726.5C497.914 726.5 510 714.524 510 699.75C510 684.978 497.914 673 483 673ZM500.399 713.889C499.516 713.114 498.164 713.143 497.321 713.981C496.477 714.817 496.444 716.152 497.222 717.027C496.098 717.942 494.895 718.737 493.629 719.409C493.112 718.361 491.853 717.876 490.749 718.33C489.648 718.782 489.104 720.004 489.483 721.106C488.108 721.514 486.691 721.791 485.244 721.935C485.162 720.774 484.193 719.857 483 719.857C481.81 719.857 480.838 720.774 480.759 721.935C479.308 721.791 477.891 721.514 476.517 721.106C476.899 720.004 476.355 718.782 475.251 718.33C474.147 717.878 472.891 718.361 472.371 719.409C471.108 718.737 469.905 717.942 468.778 717.027C469.556 716.152 469.526 714.818 468.683 713.981C467.835 713.143 466.488 713.114 465.601 713.889C464.675 712.774 463.871 711.584 463.185 710.332C464.256 709.824 464.751 708.572 464.293 707.473C463.831 706.371 462.582 705.832 461.461 706.227C461.046 704.864 460.763 703.456 460.614 702.018C461.804 701.959 462.75 700.988 462.75 699.794C462.75 698.599 461.801 697.626 460.608 697.57C460.746 696.13 461.026 694.72 461.438 693.353C462.566 693.764 463.828 693.226 464.293 692.117C464.757 691.005 464.243 689.735 463.149 689.239C463.828 687.98 464.635 686.783 465.562 685.663C466.445 686.476 467.823 686.46 468.683 685.608C469.543 684.755 469.559 683.385 468.732 682.512C469.863 681.59 471.069 680.788 472.338 680.109C472.836 681.208 474.124 681.722 475.251 681.26C476.382 680.796 476.926 679.526 476.491 678.403C477.872 677.991 479.299 677.711 480.756 677.568C480.789 678.768 481.781 679.732 483 679.732C484.22 679.732 485.212 678.769 485.248 677.568C486.705 677.711 488.132 677.991 489.513 678.403C489.078 679.526 489.622 680.796 490.749 681.258C491.879 681.722 493.168 681.208 493.662 680.109C494.931 680.788 496.137 681.59 497.268 682.512C496.444 683.386 496.461 684.755 497.321 685.608C498.178 686.46 499.559 686.476 500.442 685.663C501.368 686.783 502.172 687.98 502.855 689.239C501.757 689.735 501.243 691.004 501.711 692.117C502.173 693.227 503.438 693.764 504.565 693.353C504.977 694.72 505.254 696.13 505.396 697.57C504.203 697.626 503.25 698.599 503.25 699.794C503.25 700.988 504.196 701.959 505.386 702.018C505.241 703.456 504.958 704.864 504.542 706.227C503.422 705.832 502.169 706.371 501.711 707.473C501.249 708.572 501.747 709.824 502.815 710.332C502.133 711.584 501.325 712.774 500.399 713.889Z" fill="white"/>
<path d="M479.872 699.83L476.25 693.85L467.252 708.712H474.751H485.251H498.751L486.751 687.905L479.872 699.83ZM476.25 702.516L477.305 704.253H475.199L476.25 702.516ZM482.506 704.253L486.751 696.891L490.996 704.253H482.506Z" fill="white"/>
<path d="M453.752 748.835H449.224V745.877V739.921C439.923 730.242 441.033 722.425 442.985 718.139C444.112 716.408 444.751 714.441 444.751 712.356C444.751 705.419 437.698 699.794 429 699.794C420.302 699.794 413.252 705.419 413.252 712.356C413.252 714.441 413.888 716.408 415.019 718.139C416.97 722.425 418.077 730.242 408.776 739.921V745.877V748.835H404.251C403.008 748.835 402 749.834 402 751.065V759.983C402 761.211 403.008 762.21 404.251 762.21H453.752C454.995 762.21 456 761.211 456 759.983V751.065C456 749.834 454.995 748.835 453.752 748.835ZM420.553 727.76C421.235 723.822 420.741 719.861 419.119 716.306L418.98 716.002L418.799 715.721C418.104 714.655 417.751 713.523 417.751 712.356C417.751 710.377 418.793 708.456 420.684 706.947C422.833 705.234 425.862 704.253 429 704.253C432.138 704.253 435.17 705.234 437.316 706.947C439.207 708.456 440.252 710.377 440.252 712.356C440.252 713.523 439.9 714.655 439.204 715.721L439.023 716.002L438.885 716.306C437.263 719.862 436.765 723.823 437.451 727.76C438.159 731.858 440.114 735.937 443.271 739.921H414.729C417.886 735.937 419.841 731.858 420.553 727.76ZM413.279 744.378H444.725V748.835H413.279V744.378ZM451.501 757.753H406.502V753.296H451.501V757.753Z" fill="white"/>
</g>
<path opacity="0.1" d="M356.562 348C343.872 348.704 331.379 353.902 321.681 363.599C300.773 384.508 300.773 418.408 321.681 439.317C332.137 449.771 345.838 454.999 359.543 454.999C373.244 454.999 386.949 449.771 397.401 439.317C407.096 429.621 412.298 417.129 413 404.437L356.562 348ZM344.522 419.346H333.92L345.159 400.611L350.318 409.206L344.522 419.346ZM349.659 419.346L367.468 388.183L385.277 419.346H349.659ZM401.591 399.336C398.162 398.744 394.805 397.784 391.55 396.464C385.467 393.996 380.004 390.369 375.318 385.684C370.289 380.657 366.495 374.761 364.033 368.16C362.968 365.3 362.178 362.377 361.662 359.408L401.591 399.336ZM404.491 421.208C402.042 426.783 398.593 431.815 394.247 436.163C389.561 440.849 384.098 444.476 378.015 446.944C372.131 449.329 365.92 450.537 359.543 450.537C353.166 450.537 346.952 449.329 341.071 446.944C334.984 444.476 329.524 440.849 324.839 436.163C320.153 431.475 316.522 426.014 314.056 419.929C311.67 414.048 310.461 407.834 310.461 401.459C310.461 395.081 311.669 388.868 314.056 382.986C316.522 376.901 320.153 371.44 324.839 366.753C329.185 362.405 334.217 358.96 339.791 356.513C344.584 354.408 349.639 353.097 354.857 352.602L356.587 354.333C357.185 363.925 360.353 373.388 366.09 381.601L352.852 404.765L345.159 391.939L326.037 423.808H341.972H364.281H392.964L373.959 390.553C383.279 399.056 394.871 403.674 406.665 404.411L408.399 406.145C407.906 411.359 406.593 416.417 404.491 421.208Z" fill="white"/>
</g>
<defs>
<filter id="filter0_d_3_675" x="-13" y="-0.00012207" width="575" height="785.5" filterUnits="userSpaceOnUse" color-interpolation-filters="sRGB">
<feFlood flood-opacity="0" result="BackgroundImageFix"/>
<feColorMatrix in="SourceAlpha" type="matrix" values="0 0 0 0 0 0 0 0 0 0 0 0 0 0 0 0 0 0 127 0" result="hardAlpha"/>
<feOffset dy="4"/>
<feGaussianBlur stdDeviation="2"/>
<feComposite in2="hardAlpha" operator="out"/>
<feColorMatrix type="matrix" values="0 0 0 0 0 0 0 0 0 0 0 0 0 0 0 0 0 0 0.25 0"/>
<feBlend mode="normal" in2="BackgroundImageFix" result="effect1_dropShadow_3_675"/>
<feBlend mode="normal" in="SourceGraphic" in2="effect1_dropShadow_3_675" result="shape"/>
</filter>
<clipPath id="clip0_3_675">
<rect width="107" height="108" fill="white" transform="translate(-9 95.8171) rotate(-63.5712)"/>
</clipPath>
</defs>
</svg>
