<svg width="804" height="677" viewBox="0 0 804 677" fill="none" xmlns="http://www.w3.org/2000/svg">
<rect x="177.816" y="123.598" width="282.597" height="263.251" rx="5" fill="#212121"/>
<rect y="263.998" width="158.763" height="219.376" rx="5" fill="#212121"/>
<rect x="496.58" width="280.173" height="219.376" rx="5" fill="#212121"/>
<rect x="479.463" y="246.449" width="101.608" height="140.401" rx="5" fill="#212121"/>
<rect x="177.816" y="413.174" width="101.608" height="140.401" rx="5" fill="#212121"/>
<rect x="600.123" y="272.773" width="203.216" height="280.802" rx="5" fill="#212121"/>
<rect x="298.475" y="413.174" width="282.597" height="263.251" rx="5" fill="#212121"/>
<path d="M440 569C453.255 569 464 558.255 464 545C464 531.745 453.255 521 440 521C426.745 521 416 531.745 416 545C416 558.255 426.745 569 440 569Z" stroke="white" stroke-width="2"/>
<path d="M436.742 535.228L448.914 545.343L436.742 555.457V535.228Z" stroke="white" stroke-width="2" stroke-linecap="round" stroke-linejoin="round"/>
<path d="M339.632 634L336.034 624.662H333.542L329.93 634H332.198L332.786 632.418H336.79L337.364 634H339.632ZM336.244 630.668H333.332L334.788 626.65L336.244 630.668ZM346.794 634V629.226C346.794 627.91 346.08 627.07 344.596 627.07C343.49 627.07 342.664 627.602 342.23 628.12V627.238H340.452V634H342.23V629.45C342.524 629.044 343.07 628.652 343.77 628.652C344.526 628.652 345.016 628.974 345.016 629.912V634H346.794ZM350.828 634.168C351.57 634.168 352.046 633.972 352.312 633.734L351.934 632.39C351.836 632.488 351.584 632.586 351.318 632.586C350.926 632.586 350.702 632.264 350.702 631.844V628.792H352.074V627.238H350.702V625.39H348.91V627.238H347.79V628.792H348.91V632.32C348.91 633.524 349.582 634.168 350.828 634.168ZM359.646 634V629.198C359.646 627.882 358.932 627.07 357.448 627.07C356.342 627.07 355.502 627.602 355.068 628.12V624.662H353.29V634H355.068V629.45C355.376 629.044 355.922 628.652 356.608 628.652C357.378 628.652 357.868 628.946 357.868 629.884V634H359.646ZM364.547 634.168C366.787 634.168 368.131 632.544 368.131 630.612C368.131 628.694 366.787 627.07 364.547 627.07C362.321 627.07 360.977 628.694 360.977 630.612C360.977 632.544 362.321 634.168 364.547 634.168ZM364.547 632.586C363.441 632.586 362.825 631.676 362.825 630.612C362.825 629.562 363.441 628.652 364.547 628.652C365.653 628.652 366.283 629.562 366.283 630.612C366.283 631.676 365.653 632.586 364.547 632.586ZM375.792 634V629.226C375.792 627.91 375.078 627.07 373.594 627.07C372.488 627.07 371.662 627.602 371.228 628.12V627.238H369.45V634H371.228V629.45C371.522 629.044 372.068 628.652 372.768 628.652C373.524 628.652 374.014 628.974 374.014 629.912V634H375.792ZM377.32 636.646C377.544 636.702 377.992 636.744 378.202 636.744C379.364 636.716 380.26 636.38 380.764 635.106L383.942 627.238H382.024L380.26 631.942L378.496 627.238H376.592L379.336 634.098L379.084 634.672C378.916 635.036 378.608 635.162 378.146 635.162C377.978 635.162 377.74 635.12 377.586 635.05L377.32 636.646ZM390.348 634V630.136H394.87V628.386H390.348V626.412H394.968V624.662H388.36V634H390.348ZM398.094 634V629.534C398.388 629.1 399.172 628.764 399.76 628.764C399.956 628.764 400.124 628.778 400.25 628.806V627.07C399.41 627.07 398.57 627.56 398.094 628.162V627.238H396.316V634H398.094ZM404.497 634.168C406.737 634.168 408.081 632.544 408.081 630.612C408.081 628.694 406.737 627.07 404.497 627.07C402.271 627.07 400.927 628.694 400.927 630.612C400.927 632.544 402.271 634.168 404.497 634.168ZM404.497 632.586C403.391 632.586 402.775 631.676 402.775 630.612C402.775 629.562 403.391 628.652 404.497 628.652C405.603 628.652 406.233 629.562 406.233 630.612C406.233 631.676 405.603 632.586 404.497 632.586ZM419.578 634V629.114C419.578 627.728 418.836 627.07 417.59 627.07C416.554 627.07 415.658 627.686 415.266 628.302C415.014 627.532 414.384 627.07 413.39 627.07C412.354 627.07 411.458 627.714 411.178 628.12V627.238H409.4V634H411.178V629.45C411.444 629.072 411.962 628.652 412.578 628.652C413.306 628.652 413.586 629.1 413.586 629.73V634H415.378V629.436C415.63 629.072 416.148 628.652 416.778 628.652C417.506 628.652 417.786 629.1 417.786 629.73V634H419.578ZM339.632 656L336.034 646.662H333.542L329.93 656H332.198L332.786 654.418H336.79L337.364 656H339.632ZM336.244 652.668H333.332L334.788 648.65L336.244 652.668ZM346.603 656V649.238H344.825V653.816C344.517 654.208 343.971 654.586 343.285 654.586C342.529 654.586 342.039 654.278 342.039 653.34V649.238H340.261V654.04C340.261 655.356 340.961 656.168 342.445 656.168C343.551 656.168 344.363 655.664 344.825 655.146V656H346.603ZM350.804 656.168C352.68 656.168 353.73 655.23 353.73 653.998C353.73 651.268 349.726 652.108 349.726 651.1C349.726 650.722 350.146 650.428 350.79 650.428C351.616 650.428 352.386 650.778 352.792 651.212L353.506 649.994C352.834 649.462 351.924 649.07 350.776 649.07C348.998 649.07 348.004 650.064 348.004 651.198C348.004 653.858 352.022 652.948 352.022 654.068C352.022 654.488 351.658 654.796 350.888 654.796C350.048 654.796 349.04 654.334 348.55 653.872L347.78 655.118C348.494 655.776 349.628 656.168 350.804 656.168ZM357.308 656.168C358.05 656.168 358.526 655.972 358.792 655.734L358.414 654.39C358.316 654.488 358.064 654.586 357.798 654.586C357.406 654.586 357.182 654.264 357.182 653.844V650.792H358.554V649.238H357.182V647.39H355.39V649.238H354.27V650.792H355.39V654.32C355.39 655.524 356.062 656.168 357.308 656.168ZM361.549 656V651.534C361.843 651.1 362.627 650.764 363.215 650.764C363.411 650.764 363.579 650.778 363.705 650.806V649.07C362.865 649.07 362.025 649.56 361.549 650.162V649.238H359.771V656H361.549ZM370.654 656V651.632C370.654 649.686 369.24 649.07 367.7 649.07C366.636 649.07 365.572 649.406 364.746 650.134L365.418 651.324C365.992 650.792 366.664 650.526 367.392 650.526C368.288 650.526 368.876 650.974 368.876 651.66V652.57C368.428 652.038 367.63 651.744 366.734 651.744C365.656 651.744 364.382 652.346 364.382 653.928C364.382 655.44 365.656 656.168 366.734 656.168C367.616 656.168 368.414 655.846 368.876 655.3V656H370.654ZM367.448 654.964C366.748 654.964 366.174 654.6 366.174 653.97C366.174 653.312 366.748 652.948 367.448 652.948C368.022 652.948 368.582 653.144 368.876 653.536V654.376C368.582 654.768 368.022 654.964 367.448 654.964ZM374.195 656V646.662H372.417V656H374.195ZM376.84 648.51C377.428 648.51 377.904 648.034 377.904 647.446C377.904 646.858 377.428 646.396 376.84 646.396C376.266 646.396 375.776 646.858 375.776 647.446C375.776 648.034 376.266 648.51 376.84 648.51ZM377.736 656V649.238H375.958V656H377.736ZM385.337 656V651.632C385.337 649.686 383.923 649.07 382.383 649.07C381.319 649.07 380.255 649.406 379.429 650.134L380.101 651.324C380.675 650.792 381.347 650.526 382.075 650.526C382.971 650.526 383.559 650.974 383.559 651.66V652.57C383.111 652.038 382.313 651.744 381.417 651.744C380.339 651.744 379.065 652.346 379.065 653.928C379.065 655.44 380.339 656.168 381.417 656.168C382.299 656.168 383.097 655.846 383.559 655.3V656H385.337ZM382.131 654.964C381.431 654.964 380.857 654.6 380.857 653.97C380.857 653.312 381.431 652.948 382.131 652.948C382.705 652.948 383.265 653.144 383.559 653.536V654.376C383.265 654.768 382.705 654.964 382.131 654.964Z" fill="white"/>
</svg>
